# xmcd
#
# Track frame offsets: 
#        150
#        20065
#        43392
#        65975
#        87417
#        107482
#        133772
#
# Disc length: 2109 seconds
#
# Revision: 2
# Processed by: cddbd v1.5.2PL0 Copyright (c) Steve Scherf et al.
# Submitted via: ExactAudioCopy v1.0b3
#
DISCID=68083b07
DTITLE=Philippe Saisse Acoustique Trio - My Favorite Songs Disc2 Class
DTITLE=ic Mood
DYEAR=2004
DGENRE=Jazz
TTITLE0=Poem for #15
TTITLE1=Michelle
TTITLE2=Song for Jun
TTITLE3=Fortune Smiles
TTITLE4=Song for Saisse
TTITLE5=Laura
TTITLE6=Sorry Seems to be the Hardest Word
EXTD=YEAR: 2004
EXTT0=
EXTT1=
EXTT2=
EXTT3=
EXTT4=
EXTT5=
EXTT6=
PLAYORDER=
